name ./resultDataOpenSim/trcMotMarkerGrf/sub06/grf-14-04.mot
datacolumns 19
datarows 30
range 1.62400000 1.74000000
endheader

                time	     ground_force_vx	     ground_force_vy	     ground_force_vz	     ground_force_px	     ground_force_py	     ground_force_pz	   l_ground_force_vx	   l_ground_force_vy	   l_ground_force_vz	   l_ground_force_px	   l_ground_force_py	   l_ground_force_pz	     ground_torque_x	     ground_torque_y	     ground_torque_z	   l_ground_torque_x	   l_ground_torque_y	   l_ground_torque_z	
          1.62400000	        125.88477559	        609.89040309	        -57.02905509	          0.85285151	          0.00000000	          0.09379867	          0.00000000	          0.00000000	          0.00000000	          0.00000000	          0.00000000	          0.00000000	          0.00000000	          3.10919193	          0.00000000	          0.00000000	          0.00000000	          0.00000000	
          1.62800000	        131.33222706	        615.87091815	        -57.11188767	          0.85287697	          0.00000000	          0.09355238	          0.00000000	          0.00000000	          0.00000000	          0.00000000	          0.00000000	          0.00000000	          0.00000000	          3.11631972	          0.00000000	          0.00000000	          0.00000000	          0.00000000	
          1.63200000	        136.78167896	        620.64362769	        -56.90934834	          0.85287592	          0.00000000	          0.09328452	          0.00000000	          0.00000000	          0.00000000	          0.00000000	          0.00000000	          0.00000000	          0.00000000	          3.11408688	          0.00000000	          0.00000000	          0.00000000	          0.00000000	
          1.63600000	        142.08698470	        624.12966700	        -56.56289317	          0.85285485	          0.00000000	          0.09300143	          0.00000000	          0.00000000	          0.00000000	          0.00000000	          0.00000000	          0.00000000	          0.00000000	          3.11561048	          0.00000000	          0.00000000	          0.00000000	          0.00000000	
          1.64000000	        147.11457836	        626.29810441	        -56.21047341	          0.85282250	          0.00000000	          0.09271345	          0.00000000	          0.00000000	          0.00000000	          0.00000000	          0.00000000	          0.00000000	          0.00000000	          3.13461199	          0.00000000	          0.00000000	          0.00000000	          0.00000000	
          1.64400000	        151.78534634	        627.13557887	        -55.95554295	          0.85278229	          0.00000000	          0.09243103	          0.00000000	          0.00000000	          0.00000000	          0.00000000	          0.00000000	          0.00000000	          0.00000000	          3.18204671	          0.00000000	          0.00000000	          0.00000000	          0.00000000	
          1.64800000	        156.12241801	        626.61523391	        -55.83639283	          0.85273227	          0.00000000	          0.09216373	          0.00000000	          0.00000000	          0.00000000	          0.00000000	          0.00000000	          0.00000000	          0.00000000	          3.26249441	          0.00000000	          0.00000000	          0.00000000	          0.00000000	
          1.65200000	        160.28460898	        624.68556236	        -55.80712499	          0.85265973	          0.00000000	          0.09191754	          0.00000000	          0.00000000	          0.00000000	          0.00000000	          0.00000000	          0.00000000	          0.00000000	          3.37113269	          0.00000000	          0.00000000	          0.00000000	          0.00000000	
          1.65600000	        164.53549175	        621.28355645	        -55.76516217	          0.85253486	          0.00000000	          0.09168940	          0.00000000	          0.00000000	          0.00000000	          0.00000000	          0.00000000	          0.00000000	          0.00000000	          3.49254487	          0.00000000	          0.00000000	          0.00000000	          0.00000000	
          1.66000000	        169.12083246	        616.35704333	        -55.63566200	          0.85229556	          0.00000000	          0.09147345	          0.00000000	          0.00000000	          0.00000000	          0.00000000	          0.00000000	          0.00000000	          0.00000000	          3.60283187	          0.00000000	          0.00000000	          0.00000000	          0.00000000	
          1.66400000	        174.11830485	        609.87720332	        -55.41223852	          0.85189261	          0.00000000	          0.09127660	          0.00000000	          0.00000000	          0.00000000	          0.00000000	          0.00000000	          0.00000000	          0.00000000	          3.67557429	          0.00000000	          0.00000000	          0.00000000	          0.00000000	
          1.66800000	        179.39163061	        601.83583374	        -55.08719295	          0.85136100	          0.00000000	          0.09110766	          0.00000000	          0.00000000	          0.00000000	          0.00000000	          0.00000000	          0.00000000	          0.00000000	          3.68997693	          0.00000000	          0.00000000	          0.00000000	          0.00000000	
          1.67200000	        184.69983247	        592.22033759	        -54.60905124	          0.85076660	          0.00000000	          0.09095399	          0.00000000	          0.00000000	          0.00000000	          0.00000000	          0.00000000	          0.00000000	          0.00000000	          3.63778956	          0.00000000	          0.00000000	          0.00000000	          0.00000000	
          1.67600000	        189.82806474	        580.94831533	        -53.94976711	          0.85012565	          0.00000000	          0.09080807	          0.00000000	          0.00000000	          0.00000000	          0.00000000	          0.00000000	          0.00000000	          0.00000000	          3.52599647	          0.00000000	          0.00000000	          0.00000000	          0.00000000	
          1.68000000	        194.60053161	        567.80659464	        -53.13025785	          0.84940629	          0.00000000	          0.09069534	          0.00000000	          0.00000000	          0.00000000	          0.00000000	          0.00000000	          0.00000000	          0.00000000	          3.37414248	          0.00000000	          0.00000000	          0.00000000	          0.00000000	
          1.68400000	        198.80343219	        552.48866923	        -52.15037523	          0.84856953	          0.00000000	          0.09064536	          0.00000000	          0.00000000	          0.00000000	          0.00000000	          0.00000000	          0.00000000	          0.00000000	          3.20715755	          0.00000000	          0.00000000	          0.00000000	          0.00000000	
          1.68800000	        202.13812621	        534.70556114	        -50.97677784	          0.84762491	          0.00000000	          0.09065417	          0.00000000	          0.00000000	          0.00000000	          0.00000000	          0.00000000	          0.00000000	          0.00000000	          3.04640489	          0.00000000	          0.00000000	          0.00000000	          0.00000000	
          1.69200000	        204.27790447	        514.24231638	        -49.60019092	          0.84665206	          0.00000000	          0.09071448	          0.00000000	          0.00000000	          0.00000000	          0.00000000	          0.00000000	          0.00000000	          0.00000000	          2.90277364	          0.00000000	          0.00000000	          0.00000000	          0.00000000	
          1.69600000	        204.94287566	        490.91922519	        -48.01625841	          0.84568116	          0.00000000	          0.09082220	          0.00000000	          0.00000000	          0.00000000	          0.00000000	          0.00000000	          0.00000000	          0.00000000	          2.77471634	          0.00000000	          0.00000000	          0.00000000	          0.00000000	
          1.70000000	        203.86060554	        464.54633660	        -46.16765185	          0.84467238	          0.00000000	          0.09096603	          0.00000000	          0.00000000	          0.00000000	          0.00000000	          0.00000000	          0.00000000	          0.00000000	          2.65175531	          0.00000000	          0.00000000	          0.00000000	          0.00000000	
          1.70400000	        200.64727181	        434.98866521	        -43.97992062	          0.84364102	          0.00000000	          0.09115410	          0.00000000	          0.00000000	          0.00000000	          0.00000000	          0.00000000	          0.00000000	          0.00000000	          2.52183918	          0.00000000	          0.00000000	          0.00000000	          0.00000000	
          1.70800000	        194.76405360	        402.34785013	        -41.41404713	          0.84269438	          0.00000000	          0.09141704	          0.00000000	          0.00000000	          0.00000000	          0.00000000	          0.00000000	          0.00000000	          0.00000000	          2.37931656	          0.00000000	          0.00000000	          0.00000000	          0.00000000	
          1.71200000	        185.63838240	        367.11406886	        -38.43934267	          0.84206787	          0.00000000	          0.09176128	          0.00000000	          0.00000000	          0.00000000	          0.00000000	          0.00000000	          0.00000000	          0.00000000	          2.22953933	          0.00000000	          0.00000000	          0.00000000	          0.00000000	
          1.71600000	        172.89081616	        330.14576717	        -35.02569700	          0.84203927	          0.00000000	          0.09215647	          0.00000000	          0.00000000	          0.00000000	          0.00000000	          0.00000000	          0.00000000	          0.00000000	          2.08751746	          0.00000000	          0.00000000	          0.00000000	          0.00000000	
          1.72000000	        156.54389815	        292.51571133	        -31.19886831	          0.84283901	          0.00000000	          0.09260073	          0.00000000	          0.00000000	          0.00000000	          0.00000000	          0.00000000	          0.00000000	          0.00000000	          1.97123716	          0.00000000	          0.00000000	          0.00000000	          0.00000000	
          1.72400000	        137.13549578	        255.36845831	        -27.06623436	          0.84462168	          0.00000000	          0.09310994	          0.00000000	          0.00000000	          0.00000000	          0.00000000	          0.00000000	          0.00000000	          0.00000000	          1.89301786	          0.00000000	          0.00000000	          0.00000000	          0.00000000	
          1.72800000	        115.70531173	        219.80472111	        -22.79818099	          0.84747672	          0.00000000	          0.09364134	          0.00000000	          0.00000000	          0.00000000	          0.00000000	          0.00000000	          0.00000000	          0.00000000	          1.85317008	          0.00000000	          0.00000000	          0.00000000	          0.00000000	
          1.73200000	         93.64418235	        186.70266897	        -18.60613560	          0.85140950	          0.00000000	          0.09405320	          0.00000000	          0.00000000	          0.00000000	          0.00000000	          0.00000000	          0.00000000	          0.00000000	          1.83906364	          0.00000000	          0.00000000	          0.00000000	          0.00000000	
          1.73600000	         72.43429920	        156.51201135	        -14.70441661	          0.85626520	          0.00000000	          0.09419913	          0.00000000	          0.00000000	          0.00000000	          0.00000000	          0.00000000	          0.00000000	          0.00000000	          1.83008461	          0.00000000	          0.00000000	          0.00000000	          0.00000000	
          1.74000000	         53.34959892	        129.21870153	        -11.25570403	          0.86162769	          0.00000000	          0.09406669	          0.00000000	          0.00000000	          0.00000000	          0.00000000	          0.00000000	          0.00000000	          0.00000000	          1.80608379	          0.00000000	          0.00000000	          0.00000000	          0.00000000	
